<svg width="32" height="32" viewBox="0 0 32 32" fill="none" xmlns="http://www.w3.org/2000/svg">
<mask id="mask0_231_13" style="mask-type:alpha" maskUnits="userSpaceOnUse" x="10" y="2" width="12" height="28">
<path d="M19.6937 12.4666C19.055 11.8506 18.6859 11.0071 18.667 10.12V3.99996C18.667 3.64634 18.5265 3.3072 18.2765 3.05715C18.0264 2.8071 17.6873 2.66663 17.3337 2.66663H14.667C14.3134 2.66663 13.9742 2.8071 13.7242 3.05715C13.4741 3.3072 13.3337 3.64634 13.3337 3.99996V10.12C13.3147 11.0071 12.9456 11.8506 12.307 12.4666C11.2532 13.5633 10.6654 15.0257 10.667 16.5466V26.6666C10.667 27.3739 10.9479 28.0521 11.448 28.5522C11.9481 29.0523 12.6264 29.3333 13.3337 29.3333H18.667C19.3742 29.3333 20.0525 29.0523 20.5526 28.5522C21.0527 28.0521 21.3337 27.3739 21.3337 26.6666V16.5466C21.3352 15.0257 20.7474 13.5633 19.6937 12.4666Z" fill="black"/>
</mask>
<g mask="url(#mask0_231_13)">
<rect width="22.7892" height="13.239" transform="matrix(0.884966 0.465656 -0.465817 0.884881 12.9775 0.170044)" fill="#330C1A"/>
<rect width="22.7891" height="14.3423" transform="matrix(0.884957 0.465672 -0.465813 0.884883 6.68066 11.3607)" fill="#FF8BB3"/>
</g>
</svg>
