<svg width="50" height="51" viewBox="0 0 50 51" fill="none" xmlns="http://www.w3.org/2000/svg">
<path d="M25 0.938965C18.2156 0.938965 17.3625 0.97024 14.6969 1.08909C12.0312 1.21419 10.2156 1.63328 8.625 2.25253C6.95654 2.8806 5.44529 3.8658 4.19688 5.13926C2.92524 6.38933 1.94096 7.90163 1.3125 9.57099C0.69375 11.1598 0.271875 12.98 0.15 15.6384C0.03125 18.3125 0 19.1632 0 25.9625C0 32.7555 0.03125 33.6062 0.15 36.274C0.275 38.9386 0.69375 40.7557 1.3125 42.3477C1.95312 43.9928 2.80625 45.3876 4.19688 46.7794C5.58438 48.1712 6.97813 49.0281 8.62187 49.6661C10.2156 50.2854 12.0281 50.7076 14.6906 50.8296C17.3594 50.9484 18.2094 50.9797 25 50.9797C31.7906 50.9797 32.6375 50.9484 35.3063 50.8296C37.9656 50.7045 39.7875 50.2854 41.3781 49.6661C43.0455 49.0377 44.5557 48.0526 45.8031 46.7794C47.1937 45.3876 48.0469 43.9928 48.6875 42.3477C49.3031 40.7557 49.725 38.9386 49.85 36.274C49.9688 33.6062 50 32.7555 50 25.9593C50 19.1632 49.9688 18.3125 49.85 15.6416C49.725 12.98 49.3031 11.1598 48.6875 9.57099C48.0591 7.90159 47.0748 6.38926 45.8031 5.13926C44.5551 3.86533 43.0437 2.88006 41.375 2.25253C39.7812 1.63328 37.9625 1.21106 35.3031 1.08909C32.6344 0.97024 31.7875 0.938965 24.9937 0.938965H25.0031H25ZM22.7594 5.44889H25.0031C31.6781 5.44889 32.4688 5.47078 35.1031 5.59275C37.5406 5.70222 38.8656 6.11193 39.7469 6.45283C40.9125 6.90632 41.7469 7.45052 42.6219 8.32623C43.4969 9.20194 44.0375 10.0339 44.4906 11.2036C44.8344 12.0824 45.2406 13.4085 45.35 15.848C45.4719 18.4845 45.4969 19.2758 45.4969 25.9531C45.4969 32.6304 45.4719 33.4248 45.35 36.0613C45.2406 38.5008 44.8313 39.8237 44.4906 40.7057C44.0898 41.7921 43.4501 42.7744 42.6187 43.5799C41.7437 44.4556 40.9125 44.9967 39.7438 45.4502C38.8688 45.7942 37.5438 46.2008 35.1031 46.3134C32.4688 46.4322 31.6781 46.4604 25.0031 46.4604C18.3281 46.4604 17.5344 46.4322 14.9 46.3134C12.4625 46.2008 11.1406 45.7942 10.2594 45.4502C9.17343 45.0496 8.19102 44.4105 7.38437 43.5799C6.55235 42.7731 5.91163 41.7899 5.50938 40.7026C5.16875 39.8237 4.75938 38.4977 4.65 36.0582C4.53125 33.4217 4.50625 32.6304 4.50625 25.9468C4.50625 19.2664 4.53125 18.4782 4.65 15.8417C4.7625 13.4022 5.16875 12.0762 5.5125 11.1942C5.96563 10.0276 6.50937 9.19256 7.38437 8.31685C8.25937 7.44113 9.09062 6.90007 10.2594 6.44657C11.1406 6.10254 12.4625 5.69596 14.9 5.58337C17.2063 5.47703 18.1 5.44576 22.7594 5.44263V5.44889ZM38.3469 9.60227C37.9529 9.60227 37.5628 9.67993 37.1988 9.83081C36.8348 9.9817 36.5041 10.2029 36.2256 10.4817C35.947 10.7605 35.726 11.0915 35.5752 11.4557C35.4245 11.82 35.3469 12.2104 35.3469 12.6047C35.3469 12.999 35.4245 13.3894 35.5752 13.7537C35.726 14.118 35.947 14.449 36.2256 14.7278C36.5041 15.0066 36.8348 15.2277 37.1988 15.3786C37.5628 15.5295 37.9529 15.6072 38.3469 15.6072C39.1425 15.6072 39.9056 15.2908 40.4682 14.7278C41.0308 14.1647 41.3469 13.401 41.3469 12.6047C41.3469 11.8084 41.0308 11.0447 40.4682 10.4817C39.9056 9.9186 39.1425 9.60227 38.3469 9.60227ZM25.0031 13.1114C23.3002 13.0848 21.609 13.3975 20.0281 14.0313C18.4471 14.6651 17.0079 15.6074 15.7942 16.8032C14.5806 17.999 13.6168 19.4245 12.9589 20.9967C12.301 22.5689 11.9622 24.2564 11.9622 25.9609C11.9622 27.6654 12.301 29.3529 12.9589 30.9251C13.6168 32.4973 14.5806 33.9228 15.7942 35.1186C17.0079 36.3144 18.4471 37.2567 20.0281 37.8905C21.609 38.5243 23.3002 38.837 25.0031 38.8104C28.3736 38.7578 31.5882 37.3809 33.9531 34.9768C36.3179 32.5728 37.6434 29.3345 37.6434 25.9609C37.6434 22.5873 36.3179 19.349 33.9531 16.945C31.5882 14.5409 28.3736 13.164 25.0031 13.1114ZM25.0031 17.6182C27.2135 17.6182 29.3334 18.497 30.8964 20.0612C32.4594 21.6255 33.3375 23.7471 33.3375 25.9593C33.3375 28.1715 32.4594 30.2932 30.8964 31.8574C29.3334 33.4217 27.2135 34.3005 25.0031 34.3005C22.7927 34.3005 20.6728 33.4217 19.1098 31.8574C17.5468 30.2932 16.6688 28.1715 16.6688 25.9593C16.6688 23.7471 17.5468 21.6255 19.1098 20.0612C20.6728 18.497 22.7927 17.6182 25.0031 17.6182Z" fill="#330C1A"/>
</svg>
