<svg width="55" height="56" viewBox="0 0 55 56" fill="none" xmlns="http://www.w3.org/2000/svg">
<path d="M43.6561 12.1979C39.3707 7.88602 33.6644 5.52368 27.5915 5.52368C15.079 5.52368 4.88109 15.7299 4.88109 28.2526C4.88109 32.2663 5.93525 36.1653 7.90609 39.6056L4.69775 51.3944L16.729 48.2293C20.0519 50.0412 23.7873 51.0045 27.5915 51.0045C40.104 51.0045 50.3019 40.7982 50.3019 28.2755C50.3019 22.1977 47.9415 16.4868 43.6561 12.1979ZM27.5915 47.1513C24.1998 47.1513 20.8769 46.2339 17.9665 44.5138L17.279 44.1009L10.129 45.9816L12.0311 39.0093L11.5728 38.2983C9.69359 35.2938 8.68525 31.8076 8.68525 28.2526C8.68525 17.84 17.1644 9.35388 27.5686 9.35388C32.6103 9.35388 37.354 11.3263 40.9061 14.9042C44.4811 18.4821 46.429 23.2298 46.429 28.2755C46.4748 38.6882 37.9957 47.1513 27.5915 47.1513ZM37.9498 33.0232C37.3769 32.7479 34.5811 31.3718 34.0769 31.1654C33.5498 30.9819 33.1832 30.8902 32.7936 31.4406C32.404 32.014 31.3269 33.2984 31.0061 33.6653C30.6853 34.0552 30.3415 34.1011 29.7686 33.803C29.1957 33.5277 27.3623 32.9085 25.2082 30.9819C23.5123 29.4682 22.3894 27.6104 22.0457 27.037C21.7248 26.4636 21.9998 26.1655 22.2978 25.8673C22.5498 25.615 22.8707 25.2022 23.1457 24.8811C23.4207 24.56 23.5353 24.3077 23.7186 23.9408C23.9019 23.5509 23.8103 23.2298 23.6728 22.9545C23.5353 22.6793 22.3894 19.8812 21.9311 18.7344C21.4728 17.6335 20.9915 17.7712 20.6478 17.7482C20.304 17.7482 19.9373 17.7482 19.5478 17.7482C19.1582 17.7482 18.5623 17.8858 18.0353 18.4592C17.5311 19.0326 16.0644 20.4087 16.0644 23.2068C16.0644 26.0049 18.104 28.7113 18.379 29.0783C18.654 29.4682 22.3894 35.202 28.0728 37.6561C29.4248 38.2524 30.479 38.5964 31.304 38.8487C32.6561 39.2845 33.8936 39.2157 34.879 39.0781C35.979 38.9175 38.2478 37.702 38.7061 36.3717C39.1873 35.0415 39.1873 33.9176 39.0269 33.6653C38.8665 33.4131 38.5228 33.2984 37.9498 33.0232Z" fill="#330C1A"/>
</svg>
