<svg width="19" height="19" viewBox="0 0 19 19" fill="none" xmlns="http://www.w3.org/2000/svg">
<path d="M5 9.27273C5 8.34091 5.22727 7.49148 5.68182 6.72443C6.13636 5.95739 6.74716 5.34659 7.5142 4.89204C8.28125 4.4375 9.13068 4.21023 10.0625 4.21023C10.8693 4.21023 11.6136 4.38352 12.2955 4.73011C12.983 5.0767 13.5511 5.55114 14 6.15341C14.4489 6.75 14.7273 7.42614 14.8352 8.18182H12.7727C12.6591 7.59659 12.3438 7.11932 11.8267 6.75C11.3097 6.375 10.7216 6.1875 10.0625 6.1875C9.49432 6.1875 8.97727 6.3267 8.51136 6.60511C8.04545 6.88352 7.6733 7.25568 7.39489 7.72159C7.11648 8.1875 6.97727 8.70455 6.97727 9.27273C6.97727 9.84091 7.11648 10.358 7.39489 10.8239C7.6733 11.2898 8.04545 11.6619 8.51136 11.9403C8.97727 12.2187 9.49432 12.358 10.0625 12.358C10.7216 12.358 11.2784 12.1733 11.733 11.804C12.1932 11.429 12.483 10.9489 12.6023 10.3636H14.6648C14.5568 11.1193 14.2926 11.7983 13.8722 12.4006C13.4517 12.9972 12.9119 13.4687 12.2528 13.8153C11.5994 14.1619 10.8693 14.3352 10.0625 14.3352C9.13068 14.3352 8.28125 14.108 7.5142 13.6534C6.74716 13.1989 6.13636 12.5881 5.68182 11.821C5.22727 11.054 5 10.2045 5 9.27273ZM9.97727 18.2727C8.73864 18.2727 7.57386 18.0398 6.48295 17.5739C5.39773 17.108 4.44034 16.4631 3.6108 15.6392C2.78693 14.8097 2.1392 13.8523 1.66761 12.767C1.2017 11.6818 0.971591 10.517 0.977273 9.27273C0.982955 8.02841 1.21875 6.86364 1.68466 5.77841C2.15625 4.69318 2.80398 3.73864 3.62784 2.91477C4.4517 2.08523 5.40625 1.4375 6.49148 0.971591C7.5767 0.505682 8.73864 0.272727 9.97727 0.272727C11.2216 0.272727 12.3864 0.505682 13.4716 0.971591C14.5625 1.4375 15.517 2.08523 16.3352 2.91477C17.1591 3.73864 17.804 4.69318 18.2699 5.77841C18.7358 6.86364 18.9716 8.02841 18.9773 9.27273C18.983 10.517 18.7528 11.6818 18.2869 12.767C17.821 13.8523 17.1761 14.8097 16.3523 15.6392C15.5284 16.4631 14.571 17.108 13.4801 17.5739C12.3892 18.0398 11.2216 18.2727 9.97727 18.2727ZM9.97727 16.2955C10.9489 16.2955 11.8608 16.1136 12.7131 15.75C13.5653 15.3864 14.3125 14.8835 14.9545 14.2415C15.5966 13.5994 16.0994 12.8551 16.4631 12.0085C16.8267 11.1562 17.0057 10.2472 17 9.28125C16.9943 8.30966 16.8097 7.39773 16.446 6.54545C16.0824 5.69318 15.5795 4.94602 14.9375 4.30398C14.2955 3.66193 13.5511 3.15909 12.7045 2.79545C11.858 2.43182 10.9489 2.25 9.97727 2.25C9.01136 2.25 8.10511 2.43182 7.25852 2.79545C6.41193 3.15909 5.66761 3.66477 5.02557 4.3125C4.38352 4.95455 3.87784 5.7017 3.50852 6.55398C3.14489 7.40057 2.96023 8.30966 2.95455 9.28125C2.94886 10.2415 3.12784 11.1477 3.49148 12C3.85511 12.8466 4.35795 13.5909 5 14.233C5.64773 14.875 6.39489 15.3807 7.24148 15.75C8.09375 16.1136 9.00568 16.2955 9.97727 16.2955Z" fill="#330C1A"/>
</svg>
